<svg xmlns="http://www.w3.org/2000/svg" viewBox="0 0 128 128" role="img" aria-label="ARIA Nexus One Hub">
  <defs>
    <linearGradient id="bg" x1="18" y1="12" x2="112" y2="118" gradientUnits="userSpaceOnUse">
      <stop offset="0" stop-color="#07281f"/>
      <stop offset=".48" stop-color="#0f8f5d"/>
      <stop offset="1" stop-color="#5a20e5"/>
    </linearGradient>
    <linearGradient id="spark" x1="38" y1="24" x2="91" y2="103" gradientUnits="userSpaceOnUse">
      <stop offset="0" stop-color="#ffffff"/>
      <stop offset=".55" stop-color="#b9ffd8"/>
      <stop offset="1" stop-color="#72e3ff"/>
    </linearGradient>
    <filter id="shadow" x="-20%" y="-20%" width="140%" height="140%">
      <feDropShadow dx="0" dy="8" stdDeviation="8" flood-color="#001911" flood-opacity=".35"/>
    </filter>
  </defs>
  <rect x="8" y="8" width="112" height="112" rx="28" fill="url(#bg)" filter="url(#shadow)"/>
  <path d="M30 92 57 31c2.7-6.1 11.4-6.1 14.1 0L98 92h-18l-5.1-13.2H53.1L48 92H30Zm29-28.9h10L64 49.9l-5 13.2Z" fill="url(#spark)"/>
  <path d="M29 35c15.8-18.5 50.9-17.4 66.1 1.1" fill="none" stroke="#caffdd" stroke-width="5" stroke-linecap="round" opacity=".9"/>
  <path d="M99 82c-17.5 20.1-53.1 18.4-69.5-1.4" fill="none" stroke="#97d8ff" stroke-width="5" stroke-linecap="round" opacity=".9"/>
  <circle cx="96" cy="36" r="7" fill="#f7ff8a"/>
  <circle cx="32" cy="82" r="5.5" fill="#f38b2d"/>
  <circle cx="64" cy="65" r="7" fill="#071d18" opacity=".7"/>
</svg>
